<svg xmlns="http://www.w3.org/2000/svg" width="549.936" height="163.857" viewBox="0 0 549.936 163.857">
  <g id="Groupe_8" data-name="Groupe 8" transform="translate(-50.485 -610.677)">
    <g id="Groupe_3" data-name="Groupe 3" transform="translate(50.485 610.677)">
      <g id="Groupe_1" data-name="Groupe 1" transform="translate(18.431)">
        <path id="Tracé_1" data-name="Tracé 1" d="M280.851,480.08l-10.13,4.985c.135.547.266,1.114.419,1.676a80.216,80.216,0,0,0,6.628,16.667c5.384,10.063,12.278,18.813,22.149,24.865,2.289,1.4,4.77,2.491,7.163,3.723C293.967,516.777,287.21,498.536,280.851,480.08Z" transform="translate(-210.372 -368.205)" fill="#e64e26"/>
        <path id="Tracé_2" data-name="Tracé 2" d="M282.387,494.154a63.011,63.011,0,0,0,37.185-18.207,6.588,6.588,0,0,1,1.161-.759c-.456-.34-.616-.37-.744-.315-11,4.694-22.563,7.259-34.265,9.432a117.637,117.637,0,0,0-16.29,4.14c-7.052,2.393-12.522,7.2-17.495,13.119.582-.148.828-.19,1.06-.271A145.4,145.4,0,0,1,282.387,494.154Z" transform="translate(-237.869 -375.86)" fill="#e64e26"/>
        <path id="Tracé_3" data-name="Tracé 3" d="M270.98,487.143a3.14,3.14,0,0,0-1.786,1.508,178.345,178.345,0,0,1-13.252,23.778c-3.063,4.563-6.291,9.013-9.713,13.895,9.021-3.334,16.011-8.8,22.031-15.6,6.833-7.715,11.633-16.6,15.255-26.72C279.03,485.108,274.984,486.054,270.98,487.143Z" transform="translate(-246.229 -362.467)" fill="#e64e26"/>
        <path id="Tracé_4" data-name="Tracé 4" d="M282.592,517.336c-6.584-23.024-11.1-46.161-14.878-69.459-.537,24.047-.308,48.027,4.627,71.955Z" transform="translate(-215.069 -415.352)" fill="#e64e26"/>
        <path id="Tracé_5" data-name="Tracé 5" d="M273.2,486.269c-8.23,3.718-11.665,11.125-14.168,19.151a4.92,4.92,0,0,0,1.037-1.158,38,38,0,0,1,8.637-9.2c3.947-2.876,8.328-4.539,13.225-3.691a70.752,70.752,0,0,1,8.469,2.518A12.54,12.54,0,0,0,273.2,486.269Z" transform="translate(-227.485 -360.807)" fill="#e64e26"/>
        <path id="Tracé_6" data-name="Tracé 6" d="M276.3,452.566c-2.681,31.589-7.5,62.791-18.2,92.978,3.625-1.057,7.074-2.176,10.588-3.033a2.536,2.536,0,0,0,2.242-2.191c5.2-21.718,7.008-43.821,7.375-66.066.123-7.424,0-14.856-.121-22.285a13.783,13.783,0,0,1,.843-4.016l1.165-3.048a9.379,9.379,0,0,1-2.336-5.268c-.084-1.653-.173-3.307-.244-4.96q-.17,2.661-.352,5.322a9.385,9.385,0,0,1-2.294,4.906l.522,1.363A16.584,16.584,0,0,1,276.3,452.566Z" transform="translate(-228.852 -434.677)" fill="#e64e26"/>
      </g>
      <g id="Groupe_2" data-name="Groupe 2" transform="translate(0 35.665)">
        <path id="Tracé_7" data-name="Tracé 7" d="M269.756,453.675a61.345,61.345,0,0,1,31.311,106.141q1.05,1.848,2.171,3.654a65.515,65.515,0,0,0-34.213-114.125Q269.39,451.534,269.756,453.675Z" transform="translate(-194.425 -448.866)" fill="#e64e26"/>
        <path id="Tracé_8" data-name="Tracé 8" d="M262.392,564.917q1.065-1.537,2.1-3.08c.089-.128.172-.259.259-.389A61.347,61.347,0,0,1,299.443,453.37q.259-2.088.505-4.218a65.519,65.519,0,0,0-37.557,115.766Z" transform="translate(-238.749 -449.151)" fill="#e64e26"/>
      </g>
    </g>
    <g id="Groupe_4" data-name="Groupe 4" transform="translate(205.707 677.65)">
      <path id="Tracé_9" data-name="Tracé 9" d="M209.5,526.057v10.633h-3.828V508.263h8.391a15.748,15.748,0,0,1,4.691.625,9.011,9.011,0,0,1,3.3,1.776,7.179,7.179,0,0,1,1.954,2.777,9.777,9.777,0,0,1,.645,3.63,9.253,9.253,0,0,1-.694,3.63,7.811,7.811,0,0,1-2.033,2.837,9.392,9.392,0,0,1-3.323,1.855,14.189,14.189,0,0,1-4.543.665Zm0-3.055h4.563a8.958,8.958,0,0,0,2.906-.433,5.913,5.913,0,0,0,2.113-1.223,5.04,5.04,0,0,0,1.289-1.875,6.406,6.406,0,0,0,.436-2.4,5.458,5.458,0,0,0-1.676-4.245,7.332,7.332,0,0,0-5.068-1.527H209.5Z" transform="translate(-205.667 -507.949)" fill="#fff"/>
      <path id="Tracé_10" data-name="Tracé 10" d="M216.828,524.827v11.863H213V508.263h8.037a17.542,17.542,0,0,1,4.658.546,8.948,8.948,0,0,1,3.243,1.577,6.316,6.316,0,0,1,1.894,2.49,8.321,8.321,0,0,1,.615,3.263,8.21,8.21,0,0,1-.476,2.82,7.473,7.473,0,0,1-1.379,2.351,8.24,8.24,0,0,1-2.2,1.772,10.905,10.905,0,0,1-2.946,1.114,4.092,4.092,0,0,1,1.27,1.207l8.292,11.287h-3.412a1.683,1.683,0,0,1-1.547-.813l-7.379-10.153a2.119,2.119,0,0,0-.734-.684,2.64,2.64,0,0,0-1.19-.212Zm0-2.8h4.027a9.807,9.807,0,0,0,2.966-.407,6.083,6.083,0,0,0,2.142-1.147,4.8,4.8,0,0,0,1.3-1.775,5.815,5.815,0,0,0,.436-2.285,4.535,4.535,0,0,0-1.676-3.828,8.1,8.1,0,0,0-4.986-1.289h-4.209Z" transform="translate(-188.758 -507.949)" fill="#fff"/>
      <path id="Tracé_11" data-name="Tracé 11" d="M224.671,536.689h-3.848V508.263h3.848Z" transform="translate(-170.715 -507.949)" fill="#fff"/>
      <path id="Tracé_12" data-name="Tracé 12" d="M223.3,508.263h3.075a1.3,1.3,0,0,1,.833.258,1.6,1.6,0,0,1,.476.658l8.034,20.052a14.056,14.056,0,0,1,.506,1.468c.152.532.3,1.081.446,1.65.119-.569.248-1.117.387-1.65a11.563,11.563,0,0,1,.486-1.468l7.994-20.052a1.646,1.646,0,0,1,.476-.628,1.256,1.256,0,0,1,.833-.288h3.095l-11.585,28.426H234.88Z" transform="translate(-165.014 -507.949)" fill="#fff"/>
      <path id="Tracé_13" data-name="Tracé 13" d="M257.292,536.689h-2.976a1.262,1.262,0,0,1-.833-.258,1.576,1.576,0,0,1-.476-.651l-2.658-6.867H237.594l-2.658,6.867a1.562,1.562,0,0,1-.476.631,1.25,1.25,0,0,1-.833.278h-2.976l11.367-28.426h3.908Zm-18.627-10.55h10.613l-4.463-11.565a21.692,21.692,0,0,1-.853-2.681q-.218.813-.427,1.5t-.407,1.2Z" transform="translate(-148.05 -507.949)" fill="#fff"/>
      <path id="Tracé_14" data-name="Tracé 14" d="M260.384,508.263V511.5H251.2v25.193h-3.848V511.5h-9.224v-3.233Z" transform="translate(-130.809 -507.949)" fill="#fff"/>
      <path id="Tracé_15" data-name="Tracé 15" d="M263.6,508.263V511.4H249.951v9.439H261v3.015H249.951v9.7H263.6v3.134H246.083V508.263Z" transform="translate(-112.461 -507.949)" fill="#fff"/>
      <path id="Tracé_16" data-name="Tracé 16" d="M276.569,531.04a.793.793,0,0,1,.575.255l1.508,1.646a12.161,12.161,0,0,1-4.235,3.154,14.437,14.437,0,0,1-6,1.134,14.13,14.13,0,0,1-5.574-1.065,12.135,12.135,0,0,1-4.265-2.975,13.452,13.452,0,0,1-2.737-4.592,17.141,17.141,0,0,1-.972-5.891,16.137,16.137,0,0,1,1.041-5.892,13.464,13.464,0,0,1,2.926-4.6,13.139,13.139,0,0,1,4.513-2.985,15.359,15.359,0,0,1,5.8-1.058,12.967,12.967,0,0,1,9.442,3.607l-1.25,1.769a1.348,1.348,0,0,1-.317.324.85.85,0,0,1-.516.129,1,1,0,0,1-.546-.185c-.192-.126-.42-.281-.684-.469s-.575-.383-.932-.6a7.884,7.884,0,0,0-1.27-.592,10.146,10.146,0,0,0-1.706-.469,11.877,11.877,0,0,0-2.242-.188,10.885,10.885,0,0,0-4.176.784,9.357,9.357,0,0,0-3.263,2.235,10.135,10.135,0,0,0-2.132,3.528,13.477,13.477,0,0,0-.764,4.662,13.745,13.745,0,0,0,.764,4.744,10.453,10.453,0,0,0,2.083,3.518,8.782,8.782,0,0,0,3.124,2.192,9.93,9.93,0,0,0,3.888.757,15.746,15.746,0,0,0,2.281-.152,8.941,8.941,0,0,0,1.875-.466,7.606,7.606,0,0,0,1.607-.8,12.585,12.585,0,0,0,1.5-1.161A1,1,0,0,1,276.569,531.04Z" transform="translate(-92.204 -508.168)" fill="#fff"/>
      <path id="Tracé_17" data-name="Tracé 17" d="M286.642,536.689h-3.868V523.756H267.459v12.934h-3.868V508.263h3.868v12.676h15.314V508.263h3.868Z" transform="translate(-72.085 -507.949)" fill="#fff"/>
      <path id="Tracé_18" data-name="Tracé 18" d="M298.32,536.689h-2.976a1.262,1.262,0,0,1-.833-.258,1.575,1.575,0,0,1-.476-.651l-2.658-6.867H278.622l-2.658,6.867a1.563,1.563,0,0,1-.476.631,1.25,1.25,0,0,1-.833.278h-2.976l11.367-28.426h3.908Zm-18.627-10.55h10.613l-4.463-11.565a21.69,21.69,0,0,1-.853-2.681q-.218.813-.426,1.5t-.407,1.2Z" transform="translate(-53.432 -507.949)" fill="#fff"/>
      <path id="Tracé_19" data-name="Tracé 19" d="M291.73,533.635a7.882,7.882,0,0,0,3.154-.595,6.607,6.607,0,0,0,2.347-1.663,7.289,7.289,0,0,0,1.471-2.562,10.113,10.113,0,0,0,.506-3.273V508.263h3.829v17.278a12.965,12.965,0,0,1-.784,4.563,10.57,10.57,0,0,1-2.242,3.64,10.276,10.276,0,0,1-3.561,2.41,13.159,13.159,0,0,1-9.442,0,10.348,10.348,0,0,1-3.571-2.41,10.55,10.55,0,0,1-2.255-3.64,13.039,13.039,0,0,1-.78-4.562V508.263h3.828v17.258a10.118,10.118,0,0,0,.506,3.273,7.332,7.332,0,0,0,1.468,2.562,6.743,6.743,0,0,0,2.361,1.676A7.884,7.884,0,0,0,291.73,533.635Z" transform="translate(-33.313 -507.949)" fill="#fff"/>
      <path id="Tracé_20" data-name="Tracé 20" d="M306.762,508.263V511.4H293.114v9.935h11.668v3.138H293.114v12.216h-3.868V508.263Z" transform="translate(-12.92 -507.949)" fill="#fff"/>
      <path id="Tracé_21" data-name="Tracé 21" d="M313.554,508.263V511.4H299.906v9.935h11.667v3.138H299.906v12.216h-3.868V508.263Z" transform="translate(2.743 -507.949)" fill="#fff"/>
      <path id="Tracé_22" data-name="Tracé 22" d="M320.346,508.263V511.4H306.7v9.439h11.052v3.015H306.7v9.7h13.648v3.134H302.83V508.263Z" transform="translate(18.407 -507.949)" fill="#fff"/>
      <path id="Tracé_23" data-name="Tracé 23" d="M321.046,533.635a7.855,7.855,0,0,0,3.151-.595,6.59,6.59,0,0,0,2.351-1.663,7.287,7.287,0,0,0,1.471-2.562,10.117,10.117,0,0,0,.506-3.273V508.263h3.828v17.278a12.893,12.893,0,0,1-.787,4.563,10.511,10.511,0,0,1-2.238,3.64,10.277,10.277,0,0,1-3.561,2.41,13.159,13.159,0,0,1-9.442,0,10.317,10.317,0,0,1-3.571-2.41,10.551,10.551,0,0,1-2.255-3.64,13.041,13.041,0,0,1-.78-4.562V508.263h3.829v17.258a10.115,10.115,0,0,0,.506,3.273,7.376,7.376,0,0,0,1.465,2.562,6.787,6.787,0,0,0,2.364,1.676A7.884,7.884,0,0,0,321.046,533.635Z" transform="translate(34.294 -507.949)" fill="#fff"/>
      <path id="Tracé_24" data-name="Tracé 24" d="M322.511,524.827v11.863h-3.828V508.263h8.037a17.541,17.541,0,0,1,4.658.546,8.948,8.948,0,0,1,3.243,1.577,6.283,6.283,0,0,1,1.894,2.49,8.738,8.738,0,0,1,.139,6.083,7.473,7.473,0,0,1-1.379,2.351,8.238,8.238,0,0,1-2.2,1.772,10.9,10.9,0,0,1-2.946,1.114,4.093,4.093,0,0,1,1.27,1.207l8.292,11.287h-3.412a1.686,1.686,0,0,1-1.547-.813l-7.376-10.153a2.156,2.156,0,0,0-.737-.684,2.639,2.639,0,0,0-1.19-.212Zm0-2.8h4.027a9.791,9.791,0,0,0,2.965-.407,6.054,6.054,0,0,0,2.142-1.147,4.762,4.762,0,0,0,1.3-1.775,5.813,5.813,0,0,0,.436-2.285,4.534,4.534,0,0,0-1.676-3.828,8.084,8.084,0,0,0-4.986-1.289h-4.209Z" transform="translate(54.964 -507.949)" fill="#fff"/>
    </g>
    <g id="Groupe_6" data-name="Groupe 6" transform="translate(205.65 720.641)">
      <g id="Groupe_5" data-name="Groupe 5" transform="translate(126.317)">
        <path id="Tracé_25" data-name="Tracé 25" d="M246.408,533.1v7.088h-2.552V521.234h5.594a10.492,10.492,0,0,1,3.128.417,5.99,5.99,0,0,1,2.2,1.184,4.781,4.781,0,0,1,1.3,1.851,6.5,6.5,0,0,1,.43,2.42,6.181,6.181,0,0,1-.463,2.42,5.177,5.177,0,0,1-1.356,1.891,6.27,6.27,0,0,1-2.215,1.236,9.463,9.463,0,0,1-3.028.443Zm0-2.033h3.042a5.948,5.948,0,0,0,1.937-.294,4,4,0,0,0,1.408-.813,3.407,3.407,0,0,0,.863-1.25,4.321,4.321,0,0,0,.288-1.6,3.642,3.642,0,0,0-1.114-2.83,4.9,4.9,0,0,0-3.382-1.018h-3.042Z" transform="translate(-243.856 -521.026)" fill="#e64e26"/>
        <path id="Tracé_26" data-name="Tracé 26" d="M270.817,540.185h-1.984a.869.869,0,0,1-.555-.169,1.07,1.07,0,0,1-.317-.44L266.191,535h-8.507l-1.772,4.576a.988.988,0,0,1-.317.423.829.829,0,0,1-.555.185h-1.984l7.578-18.951h2.605ZM258.4,533.153h7.075l-2.976-7.71a15.06,15.06,0,0,1-.569-1.789c-.1.364-.192.694-.284,1s-.182.572-.271.8Z" transform="translate(-222.639 -521.026)" fill="#e64e26"/>
        <path id="Tracé_27" data-name="Tracé 27" d="M267.384,532.277v7.908h-2.552V521.234h5.356a11.743,11.743,0,0,1,3.108.364,6.048,6.048,0,0,1,2.166,1.051,4.185,4.185,0,0,1,1.26,1.663,5.509,5.509,0,0,1,.41,2.172,5.434,5.434,0,0,1-.317,1.878,4.92,4.92,0,0,1-.919,1.567,5.394,5.394,0,0,1-1.465,1.184,7.271,7.271,0,0,1-1.967.74,2.75,2.75,0,0,1,.846.807l5.531,7.525h-2.275a1.113,1.113,0,0,1-1.032-.542l-4.923-6.768a1.383,1.383,0,0,0-.489-.459,1.8,1.8,0,0,0-.79-.139Zm0-1.865h2.685a6.5,6.5,0,0,0,1.977-.271,3.937,3.937,0,0,0,1.428-.767,3.162,3.162,0,0,0,.866-1.18,3.85,3.85,0,0,0,.294-1.521,3.023,3.023,0,0,0-1.121-2.556,5.4,5.4,0,0,0-3.326-.86h-2.8Z" transform="translate(-195.482 -521.026)" fill="#e64e26"/>
        <path id="Tracé_28" data-name="Tracé 28" d="M278.217,540.185h-2.569V521.234h2.569Z" transform="translate(-170.538 -521.026)" fill="#e64e26"/>
        <path id="Tracé_29" data-name="Tracé 29" d="M294.337,524.345a1.039,1.039,0,0,1-.251.294.559.559,0,0,1-.344.1.935.935,0,0,1-.522-.228,8.821,8.821,0,0,0-.754-.5,6,6,0,0,0-1.1-.5,4.757,4.757,0,0,0-1.554-.225,4.655,4.655,0,0,0-1.521.231,3.223,3.223,0,0,0-1.1.628,2.608,2.608,0,0,0-.668.932,3,3,0,0,0-.225,1.16,2.125,2.125,0,0,0,.39,1.313,3.347,3.347,0,0,0,1.031.9,8.106,8.106,0,0,0,1.455.638c.542.182,1.1.367,1.666.562s1.124.413,1.666.655a5.724,5.724,0,0,1,1.455.923,4.172,4.172,0,0,1,1.032,1.362,4.5,4.5,0,0,1,.39,1.98,6.4,6.4,0,0,1-.423,2.334,5.419,5.419,0,0,1-1.236,1.9,5.785,5.785,0,0,1-2,1.266,7.377,7.377,0,0,1-2.691.463,8.192,8.192,0,0,1-3.352-.668,7.826,7.826,0,0,1-2.585-1.805l.741-1.213a.874.874,0,0,1,.258-.248.6.6,0,0,1,.337-.1,1.052,1.052,0,0,1,.635.3,9.93,9.93,0,0,0,.893.655,6.741,6.741,0,0,0,1.3.658,5.2,5.2,0,0,0,1.858.294,4.855,4.855,0,0,0,1.627-.251,3.473,3.473,0,0,0,1.21-.708,3.064,3.064,0,0,0,.76-1.091,3.653,3.653,0,0,0,.265-1.412,2.375,2.375,0,0,0-.39-1.412,3.248,3.248,0,0,0-1.025-.919,7.109,7.109,0,0,0-1.448-.628q-.813-.258-1.666-.529a16.259,16.259,0,0,1-1.666-.628,5.39,5.39,0,0,1-1.448-.926,4.245,4.245,0,0,1-1.025-1.422,5.192,5.192,0,0,1,1.131-5.72,5.455,5.455,0,0,1,1.832-1.164,6.785,6.785,0,0,1,2.506-.433,8.044,8.044,0,0,1,2.9.5,6.637,6.637,0,0,1,2.288,1.455Z" transform="translate(-153.362 -521.171)" fill="#e64e26"/>
      </g>
      <rect id="Rectangle_1" data-name="Rectangle 1" width="118.445" height="2.19" transform="translate(0 8.292)" fill="#e64e26"/>
      <rect id="Rectangle_2" data-name="Rectangle 2" width="118.445" height="2.19" transform="translate(276.326 8.292)" fill="#e64e26"/>
    </g>
  </g>
</svg>
